<svg width="18" height="20" viewBox="0 0 18 20" fill="none" xmlns="http://www.w3.org/2000/svg">
    <path fill-rule="evenodd" clip-rule="evenodd" d="M9.96335 0.301656C9.84158 0.13836 9.65862 0.0316192 9.45654 0.00597177C9.25446 -0.0196757 9.05064 0.0379768 8.89194 0.165676C7.02176 1.6705 5.7174 3.85363 5.35322 6.34224C4.69665 5.86628 4.11999 5.28639 3.6476 4.62668C3.51764 4.4452 3.3136 4.33103 3.09095 4.31521C2.8683 4.2994 2.65017 4.38358 2.49587 4.54487C0.950469 6.16028 0 8.3527 0 10.7655C0 15.7361 4.02944 19.7655 9 19.7655C13.9706 19.7655 18 15.7361 18 10.7655C18 7.10463 15.8143 3.95586 12.6798 2.54993C11.5706 2.00843 10.6547 1.22871 9.96335 0.301656ZM12.75 12.2659C12.75 14.337 11.0711 16.0159 9 16.0159C6.92893 16.0159 5.25 14.337 5.25 12.2659C5.25 11.8566 5.31559 11.4626 5.43682 11.0938C6.06529 11.5584 6.78769 11.9032 7.57031 12.0945C7.78619 10.6937 8.48657 9.45282 9.49489 8.54828C11.3321 8.79049 12.75 10.3626 12.75 12.2659Z" fill="#A685FA"/>
</svg>
